# xmcd
#
# Track frame offsets: 
#        150
#        16656
#        36254
#        53986
#        72033
#        91881
#        112261
#        128487
#        143012
#        157334
#        171069
#        186248
#        200164
#        214710
#
# Disc length: 3100 seconds
#
# Revision: 1
# Processed by: cddbd v1.5.2PL0 Copyright (c) Steve Scherf et al.
# Submitted via: ExactAudioCopy v1.1
#
DISCID=c80c1a0e
DTITLE=Various Artist - RENDEZ-VOUS VOYAGE
DYEAR=2012
DGENRE=New Age
TTITLE0=Brasil - Fitness Forever
TTITLE1=Arai （What?) - La-Ong-Fong
TTITLE2=Isabella Feat. Elza Soares＆Cesar Camargo Mariano - Banda Black
TTITLE2=Rio
TTITLE3=（PEACEBIRD） - I LOVE YOU
TTITLE4=La Casa Azul - Todas Tus Amigas
TTITLE5=Knobsticker with Steye - Dirty Things
TTITLE6=Inna Modja - French Cancan
TTITLE7=Miou Miou - A l’ete de la Saint Martin’68
TTITLE8=Muchuu - Dance the Day（Muchuu）
TTITLE9=Heine Totland - The Game
TTITLE10=Buika - Little Freaky Girl
TTITLE11=Maria Gadu - Shimbaraie
TTITLE12=Jarmo Saari - Osut ja Uppoan
TTITLE13=Batida - Uspomena
EXTD=YEAR: 2012
EXTT0=
EXTT1=
EXTT2=
EXTT3=
EXTT4=
EXTT5=
EXTT6=
EXTT7=
EXTT8=
EXTT9=
EXTT10=
EXTT11=
EXTT12=
EXTT13=
PLAYORDER=
